<mxfile host="app.diagrams.net" agent="Mozilla/5.0 (Windows NT 10.0; Win64; x64) AppleWebKit/537.36 (KHTML, like Gecko) Chrome/133.0.0.0 Safari/537.36" version="26.0.11">
  <diagram name="Dionice - Pregled i praÄ‡enje kretanja dionica" id="D3_Ipdly3IYAX61Syu2s">
    <mxGraphModel dx="2514" dy="915" grid="1" gridSize="10" guides="1" tooltips="1" connect="1" arrows="1" fold="1" page="1" pageScale="1" pageWidth="827" pageHeight="1169" math="0" shadow="0">
      <root>
        <mxCell id="0" />
        <mxCell id="1" parent="0" />
        <mxCell id="p1HWxOSMFdeQzIFVMbEp-39" style="edgeStyle=orthogonalEdgeStyle;rounded=0;orthogonalLoop=1;jettySize=auto;html=1;exitX=0.5;exitY=1;exitDx=0;exitDy=0;entryX=0.5;entryY=0;entryDx=0;entryDy=0;" parent="1" edge="1">
          <mxGeometry relative="1" as="geometry">
            <mxPoint x="70" y="1050" as="sourcePoint" />
          </mxGeometry>
        </mxCell>
        <mxCell id="p1HWxOSMFdeQzIFVMbEp-55" style="edgeStyle=orthogonalEdgeStyle;rounded=0;orthogonalLoop=1;jettySize=auto;html=1;exitX=0.5;exitY=1;exitDx=0;exitDy=0;entryX=0.5;entryY=0;entryDx=0;entryDy=0;" parent="1" edge="1">
          <mxGeometry relative="1" as="geometry">
            <mxPoint x="70" y="1105" as="sourcePoint" />
          </mxGeometry>
        </mxCell>
        <mxCell id="p1HWxOSMFdeQzIFVMbEp-56" value="" style="edgeStyle=orthogonalEdgeStyle;rounded=0;orthogonalLoop=1;jettySize=auto;html=1;" parent="1" edge="1">
          <mxGeometry relative="1" as="geometry">
            <mxPoint x="70" y="1220" as="sourcePoint" />
          </mxGeometry>
        </mxCell>
        <mxCell id="p1HWxOSMFdeQzIFVMbEp-57" value="" style="edgeStyle=orthogonalEdgeStyle;rounded=0;orthogonalLoop=1;jettySize=auto;html=1;" parent="1" edge="1">
          <mxGeometry relative="1" as="geometry">
            <mxPoint x="70" y="1220" as="sourcePoint" />
          </mxGeometry>
        </mxCell>
        <mxCell id="jw8t-48ky2OD-zhY31V_-36" value="OBAVIJESTI" style="swimlane;" vertex="1" parent="1">
          <mxGeometry x="-230" y="1070" width="180" height="730" as="geometry" />
        </mxCell>
        <mxCell id="jw8t-48ky2OD-zhY31V_-98" value="&lt;font style=&quot;font-size: 11px;&quot;&gt;Postavljanje obavijesti&lt;/font&gt;" style="rounded=1;whiteSpace=wrap;html=1;" vertex="1" parent="jw8t-48ky2OD-zhY31V_-36">
          <mxGeometry x="30" y="420" width="90" height="30" as="geometry" />
        </mxCell>
        <mxCell id="jw8t-48ky2OD-zhY31V_-37" value="KORISNIK" style="swimlane;startSize=23;" vertex="1" parent="1">
          <mxGeometry x="-50" y="1070" width="180" height="730" as="geometry" />
        </mxCell>
        <mxCell id="jw8t-48ky2OD-zhY31V_-94" style="edgeStyle=orthogonalEdgeStyle;rounded=0;orthogonalLoop=1;jettySize=auto;html=1;exitX=0.5;exitY=1;exitDx=0;exitDy=0;entryX=0.5;entryY=0;entryDx=0;entryDy=0;" edge="1" parent="jw8t-48ky2OD-zhY31V_-37" source="jw8t-48ky2OD-zhY31V_-38" target="jw8t-48ky2OD-zhY31V_-40">
          <mxGeometry relative="1" as="geometry" />
        </mxCell>
        <mxCell id="jw8t-48ky2OD-zhY31V_-101" style="edgeStyle=orthogonalEdgeStyle;rounded=0;orthogonalLoop=1;jettySize=auto;html=1;exitX=0.5;exitY=0;exitDx=0;exitDy=0;entryX=0.5;entryY=0;entryDx=0;entryDy=0;" edge="1" parent="jw8t-48ky2OD-zhY31V_-37" target="jw8t-48ky2OD-zhY31V_-38">
          <mxGeometry relative="1" as="geometry">
            <mxPoint x="90" y="260" as="sourcePoint" />
          </mxGeometry>
        </mxCell>
        <mxCell id="jw8t-48ky2OD-zhY31V_-38" value="Prikaz trenutnih cijena dionica" style="rounded=1;whiteSpace=wrap;html=1;" vertex="1" parent="jw8t-48ky2OD-zhY31V_-37">
          <mxGeometry x="45" y="360" width="90" height="30" as="geometry" />
        </mxCell>
        <mxCell id="jw8t-48ky2OD-zhY31V_-39" value="" style="edgeStyle=orthogonalEdgeStyle;rounded=0;orthogonalLoop=1;jettySize=auto;html=1;" edge="1" parent="jw8t-48ky2OD-zhY31V_-37" source="jw8t-48ky2OD-zhY31V_-40" target="jw8t-48ky2OD-zhY31V_-41">
          <mxGeometry relative="1" as="geometry" />
        </mxCell>
        <mxCell id="jw8t-48ky2OD-zhY31V_-40" value="&lt;font style=&quot;font-size: 11px;&quot;&gt;Pregled detalja o pojedinoj dionici&lt;/font&gt;" style="rounded=1;whiteSpace=wrap;html=1;" vertex="1" parent="jw8t-48ky2OD-zhY31V_-37">
          <mxGeometry x="45" y="420" width="90" height="30" as="geometry" />
        </mxCell>
        <mxCell id="jw8t-48ky2OD-zhY31V_-41" value="&lt;font style=&quot;font-size: 11px;&quot;&gt;Prikaz povijesti kretanja cijena&lt;/font&gt;" style="rounded=1;whiteSpace=wrap;html=1;" vertex="1" parent="jw8t-48ky2OD-zhY31V_-37">
          <mxGeometry x="45" y="470" width="90" height="30" as="geometry" />
        </mxCell>
        <mxCell id="jw8t-48ky2OD-zhY31V_-46" value="DIONICE (SUSTAV)" style="swimlane;" vertex="1" parent="1">
          <mxGeometry x="130" y="1070" width="180" height="730" as="geometry" />
        </mxCell>
        <mxCell id="jw8t-48ky2OD-zhY31V_-47" value="" style="edgeStyle=orthogonalEdgeStyle;rounded=0;orthogonalLoop=1;jettySize=auto;html=1;" edge="1" parent="jw8t-48ky2OD-zhY31V_-46" source="jw8t-48ky2OD-zhY31V_-53" target="jw8t-48ky2OD-zhY31V_-52">
          <mxGeometry relative="1" as="geometry" />
        </mxCell>
        <mxCell id="jw8t-48ky2OD-zhY31V_-48" value="" style="ellipse;html=1;shape=endState;fillColor=strokeColor;" vertex="1" parent="jw8t-48ky2OD-zhY31V_-46">
          <mxGeometry x="85" y="630" width="30" height="30" as="geometry" />
        </mxCell>
        <mxCell id="jw8t-48ky2OD-zhY31V_-49" value="&lt;span style=&quot;font-size: 10px;&quot;&gt;Provjera&lt;/span&gt;" style="rhombus;whiteSpace=wrap;html=1;" vertex="1" parent="jw8t-48ky2OD-zhY31V_-46">
          <mxGeometry x="55" y="180" width="70" height="60" as="geometry" />
        </mxCell>
        <mxCell id="jw8t-48ky2OD-zhY31V_-50" value="" style="edgeStyle=orthogonalEdgeStyle;rounded=0;orthogonalLoop=1;jettySize=auto;html=1;" edge="1" parent="jw8t-48ky2OD-zhY31V_-46" source="jw8t-48ky2OD-zhY31V_-53" target="jw8t-48ky2OD-zhY31V_-52">
          <mxGeometry relative="1" as="geometry" />
        </mxCell>
        <mxCell id="jw8t-48ky2OD-zhY31V_-51" value="" style="edgeStyle=orthogonalEdgeStyle;rounded=0;orthogonalLoop=1;jettySize=auto;html=1;" edge="1" parent="jw8t-48ky2OD-zhY31V_-46" source="jw8t-48ky2OD-zhY31V_-52" target="jw8t-48ky2OD-zhY31V_-49">
          <mxGeometry relative="1" as="geometry" />
        </mxCell>
        <mxCell id="jw8t-48ky2OD-zhY31V_-52" value="Prisup podacima" style="rounded=1;whiteSpace=wrap;html=1;" vertex="1" parent="jw8t-48ky2OD-zhY31V_-46">
          <mxGeometry x="45" y="130" width="90" height="30" as="geometry" />
        </mxCell>
        <mxCell id="jw8t-48ky2OD-zhY31V_-53" value="Prijava" style="rounded=1;whiteSpace=wrap;html=1;" vertex="1" parent="jw8t-48ky2OD-zhY31V_-46">
          <mxGeometry x="45" y="80" width="90" height="30" as="geometry" />
        </mxCell>
        <mxCell id="jw8t-48ky2OD-zhY31V_-54" value="&lt;font style=&quot;font-size: 7px;&quot;&gt;Neuspjeh&lt;/font&gt;" style="text;html=1;align=center;verticalAlign=middle;resizable=0;points=[];autosize=1;strokeColor=none;fillColor=none;" vertex="1" parent="jw8t-48ky2OD-zhY31V_-46">
          <mxGeometry x="120" y="188" width="50" height="30" as="geometry" />
        </mxCell>
        <mxCell id="jw8t-48ky2OD-zhY31V_-55" value="" style="endArrow=classic;html=1;rounded=0;" edge="1" parent="jw8t-48ky2OD-zhY31V_-46">
          <mxGeometry width="50" height="50" relative="1" as="geometry">
            <mxPoint x="170" y="100" as="sourcePoint" />
            <mxPoint x="135" y="100" as="targetPoint" />
          </mxGeometry>
        </mxCell>
        <mxCell id="jw8t-48ky2OD-zhY31V_-57" value="&lt;font size=&quot;1&quot;&gt;Odjava&lt;/font&gt;" style="rounded=1;whiteSpace=wrap;html=1;" vertex="1" parent="jw8t-48ky2OD-zhY31V_-46">
          <mxGeometry x="55" y="580" width="90" height="30" as="geometry" />
        </mxCell>
        <mxCell id="jw8t-48ky2OD-zhY31V_-58" value="" style="ellipse;html=1;shape=endState;fillColor=strokeColor;" vertex="1" parent="jw8t-48ky2OD-zhY31V_-46">
          <mxGeometry x="75" y="40" width="30" height="30" as="geometry" />
        </mxCell>
        <mxCell id="jw8t-48ky2OD-zhY31V_-59" value="" style="endArrow=classic;html=1;rounded=0;exitX=0.5;exitY=1;exitDx=0;exitDy=0;entryX=0.5;entryY=0;entryDx=0;entryDy=0;" edge="1" parent="jw8t-48ky2OD-zhY31V_-46" source="jw8t-48ky2OD-zhY31V_-58" target="jw8t-48ky2OD-zhY31V_-53">
          <mxGeometry width="50" height="50" relative="1" as="geometry">
            <mxPoint x="130" y="100" as="sourcePoint" />
            <mxPoint x="180" y="50" as="targetPoint" />
          </mxGeometry>
        </mxCell>
        <mxCell id="jw8t-48ky2OD-zhY31V_-60" value="" style="endArrow=classic;html=1;rounded=0;exitX=0.5;exitY=1;exitDx=0;exitDy=0;entryX=0.5;entryY=0;entryDx=0;entryDy=0;" edge="1" parent="jw8t-48ky2OD-zhY31V_-46" source="jw8t-48ky2OD-zhY31V_-57" target="jw8t-48ky2OD-zhY31V_-48">
          <mxGeometry width="50" height="50" relative="1" as="geometry">
            <mxPoint x="110" y="610" as="sourcePoint" />
            <mxPoint x="160" y="560" as="targetPoint" />
          </mxGeometry>
        </mxCell>
        <mxCell id="jw8t-48ky2OD-zhY31V_-61" value="ADMINISTATOR" style="swimlane;" vertex="1" parent="1">
          <mxGeometry x="310" y="1070" width="180" height="730" as="geometry" />
        </mxCell>
        <mxCell id="jw8t-48ky2OD-zhY31V_-87" style="edgeStyle=orthogonalEdgeStyle;rounded=0;orthogonalLoop=1;jettySize=auto;html=1;exitX=0.5;exitY=1;exitDx=0;exitDy=0;" edge="1" parent="jw8t-48ky2OD-zhY31V_-61" source="jw8t-48ky2OD-zhY31V_-63">
          <mxGeometry relative="1" as="geometry">
            <mxPoint x="90" y="600" as="targetPoint" />
          </mxGeometry>
        </mxCell>
        <mxCell id="jw8t-48ky2OD-zhY31V_-63" value="Upravljanje korisnicima" style="rounded=1;whiteSpace=wrap;html=1;" vertex="1" parent="jw8t-48ky2OD-zhY31V_-61">
          <mxGeometry x="45" y="410" width="90" height="30" as="geometry" />
        </mxCell>
        <mxCell id="jw8t-48ky2OD-zhY31V_-69" value="" style="endArrow=none;html=1;rounded=0;exitX=1;exitY=0.5;exitDx=0;exitDy=0;" edge="1" parent="1" source="jw8t-48ky2OD-zhY31V_-49">
          <mxGeometry width="50" height="50" relative="1" as="geometry">
            <mxPoint x="130" y="1290" as="sourcePoint" />
            <mxPoint x="300" y="1280" as="targetPoint" />
          </mxGeometry>
        </mxCell>
        <mxCell id="jw8t-48ky2OD-zhY31V_-70" value="" style="endArrow=none;html=1;rounded=0;" edge="1" parent="1">
          <mxGeometry width="50" height="50" relative="1" as="geometry">
            <mxPoint x="300" y="1280" as="sourcePoint" />
            <mxPoint x="300" y="1170" as="targetPoint" />
          </mxGeometry>
        </mxCell>
        <mxCell id="jw8t-48ky2OD-zhY31V_-71" value="" style="endArrow=classic;html=1;rounded=0;exitX=0.5;exitY=1;exitDx=0;exitDy=0;" edge="1" parent="1" source="jw8t-48ky2OD-zhY31V_-49">
          <mxGeometry width="50" height="50" relative="1" as="geometry">
            <mxPoint x="110" y="1330" as="sourcePoint" />
            <mxPoint x="220" y="1330" as="targetPoint" />
          </mxGeometry>
        </mxCell>
        <mxCell id="jw8t-48ky2OD-zhY31V_-72" value="" style="endArrow=none;html=1;rounded=0;" edge="1" parent="1">
          <mxGeometry width="50" height="50" relative="1" as="geometry">
            <mxPoint x="40" y="1330" as="sourcePoint" />
            <mxPoint x="400" y="1330" as="targetPoint" />
          </mxGeometry>
        </mxCell>
        <mxCell id="jw8t-48ky2OD-zhY31V_-73" value="&lt;span style=&quot;font-size: 8px;&quot;&gt;Uspjeh&lt;/span&gt;" style="text;html=1;align=center;verticalAlign=middle;resizable=0;points=[];autosize=1;strokeColor=none;fillColor=none;" vertex="1" parent="1">
          <mxGeometry x="215" y="1308" width="50" height="30" as="geometry" />
        </mxCell>
        <mxCell id="jw8t-48ky2OD-zhY31V_-76" value="" style="endArrow=classic;html=1;rounded=0;entryX=0.5;entryY=0;entryDx=0;entryDy=0;" edge="1" parent="1" target="jw8t-48ky2OD-zhY31V_-63">
          <mxGeometry width="50" height="50" relative="1" as="geometry">
            <mxPoint x="400" y="1330" as="sourcePoint" />
            <mxPoint x="270" y="1280" as="targetPoint" />
          </mxGeometry>
        </mxCell>
        <mxCell id="jw8t-48ky2OD-zhY31V_-84" value="" style="endArrow=none;html=1;rounded=0;entryX=0.5;entryY=1;entryDx=0;entryDy=0;" edge="1" parent="1">
          <mxGeometry width="50" height="50" relative="1" as="geometry">
            <mxPoint x="400" y="1670" as="sourcePoint" />
            <mxPoint x="400" y="1550" as="targetPoint" />
          </mxGeometry>
        </mxCell>
        <mxCell id="jw8t-48ky2OD-zhY31V_-85" value="" style="endArrow=classic;html=1;rounded=0;entryX=1;entryY=0.5;entryDx=0;entryDy=0;" edge="1" parent="1" target="jw8t-48ky2OD-zhY31V_-57">
          <mxGeometry width="50" height="50" relative="1" as="geometry">
            <mxPoint x="400" y="1665" as="sourcePoint" />
            <mxPoint x="370" y="1640" as="targetPoint" />
          </mxGeometry>
        </mxCell>
        <mxCell id="jw8t-48ky2OD-zhY31V_-95" value="VANJSKI API" style="swimlane;" vertex="1" parent="1">
          <mxGeometry x="-410" y="1070" width="180" height="730" as="geometry" />
        </mxCell>
        <mxCell id="jw8t-48ky2OD-zhY31V_-102" style="edgeStyle=orthogonalEdgeStyle;rounded=0;orthogonalLoop=1;jettySize=auto;html=1;exitX=0.5;exitY=1;exitDx=0;exitDy=0;" edge="1" parent="jw8t-48ky2OD-zhY31V_-95" source="jw8t-48ky2OD-zhY31V_-96" target="jw8t-48ky2OD-zhY31V_-80">
          <mxGeometry relative="1" as="geometry" />
        </mxCell>
        <mxCell id="jw8t-48ky2OD-zhY31V_-96" value="Prisup podacima" style="rounded=1;whiteSpace=wrap;html=1;" vertex="1" parent="jw8t-48ky2OD-zhY31V_-95">
          <mxGeometry x="45" y="130" width="90" height="30" as="geometry" />
        </mxCell>
        <mxCell id="jw8t-48ky2OD-zhY31V_-80" value="&lt;font style=&quot;font-size: 11px;&quot;&gt;DohvaÄ‡anje liste dostupnih dionica&lt;/font&gt;" style="rounded=1;whiteSpace=wrap;html=1;" vertex="1" parent="jw8t-48ky2OD-zhY31V_-95">
          <mxGeometry x="45" y="240" width="90" height="30" as="geometry" />
        </mxCell>
        <mxCell id="jw8t-48ky2OD-zhY31V_-97" style="edgeStyle=orthogonalEdgeStyle;rounded=0;orthogonalLoop=1;jettySize=auto;html=1;exitX=0;exitY=0.5;exitDx=0;exitDy=0;entryX=1;entryY=0.5;entryDx=0;entryDy=0;" edge="1" parent="1" source="jw8t-48ky2OD-zhY31V_-40" target="jw8t-48ky2OD-zhY31V_-98">
          <mxGeometry relative="1" as="geometry">
            <mxPoint x="-90" y="1505" as="targetPoint" />
          </mxGeometry>
        </mxCell>
        <mxCell id="jw8t-48ky2OD-zhY31V_-99" style="edgeStyle=orthogonalEdgeStyle;rounded=0;orthogonalLoop=1;jettySize=auto;html=1;exitX=0.5;exitY=1;exitDx=0;exitDy=0;entryX=0;entryY=0.75;entryDx=0;entryDy=0;" edge="1" parent="1" source="jw8t-48ky2OD-zhY31V_-41" target="jw8t-48ky2OD-zhY31V_-57">
          <mxGeometry relative="1" as="geometry" />
        </mxCell>
        <mxCell id="jw8t-48ky2OD-zhY31V_-104" style="edgeStyle=orthogonalEdgeStyle;rounded=0;orthogonalLoop=1;jettySize=auto;html=1;exitX=1;exitY=0.5;exitDx=0;exitDy=0;entryX=0.5;entryY=0;entryDx=0;entryDy=0;" edge="1" parent="1" source="jw8t-48ky2OD-zhY31V_-80" target="jw8t-48ky2OD-zhY31V_-38">
          <mxGeometry relative="1" as="geometry">
            <Array as="points">
              <mxPoint x="-265" y="1330" />
              <mxPoint x="40" y="1330" />
            </Array>
          </mxGeometry>
        </mxCell>
      </root>
    </mxGraphModel>
  </diagram>
</mxfile>
